/* XPM */
static char * ikona_xpm[] = {
"32 32 18 1",
" 	c None",
".	c #F6090B",
"+	c #F5080A",
"@	c #F4080A",
"#	c #EC080A",
"$	c #D90709",
"%	c #F1080A",
"&	c #CC0709",
"*	c #850405",
"=	c #EE080A",
"-	c #B30608",
";	c #500203",
">	c #F3080A",
",	c #DA0709",
"'	c #A60607",
")	c #A50607",
"!	c #EB080A",
"~	c #F2080A",
"                                ",
"                                ",
"                 ..             ",
"     ...       ....             ",
"     ...      ...   .           ",
"    ....     ..    ..           ",
"    ...      ..    ..   ....    ",
"    .... ..  ..   ............  ",
"     ... ..  ..   ............. ",
"     ... ......   ......    ... ",
"     .... ...... ......         ",
"      .... ..... ....           ",
"       .... .........  ...      ",
"  ..   .......+@@+...........   ",
"  ...   .....+#$$#+.....   ...  ",
"   ....  ....%&**&%....     ..  ",
"    .........=-;;-=.....    ..  ",
"      .......>,'),>......       ",
"           ...>#!~........      ",
" ..       .................     ",
" ...     .............. ....    ",
" ................ ..... ....    ",
" ...............  .....  ...    ",
"   ........ .... ..  ..  ...    ",
"            ... ...  ..  ...    ",
"         ....   ...  ..  ...    ",
"    ..............   .   ...    ",
"    ...... ......   .    ...    ",
"                    .     .     ",
"                   ..           ",
"                                ",
"                                "};
